<svg width="18" height="18" viewBox="0 0 18 18" fill="none" xmlns="http://www.w3.org/2000/svg">
<path d="M7.05 7.875L10.6237 1.68375C10.1025 1.5675 9.55875 1.5 9 1.5C7.2 1.5 5.55375 2.13375 4.26 3.19125L7.00875 7.95L7.05 7.875ZM16.155 6.75C15.465 4.55625 13.7925 2.805 11.6588 1.995L8.91375 6.75H16.155ZM16.35 7.5H10.7325L10.95 7.875L14.5238 14.0625C15.7463 12.7275 16.5 10.9537 16.5 9C16.5 8.48625 16.4475 7.98375 16.35 7.5ZM6.40125 9L3.47625 3.9375C2.25375 5.2725 1.5 7.04625 1.5 9C1.5 9.51375 1.5525 10.0162 1.65 10.5H7.2675L6.40125 9ZM1.845 11.25C2.535 13.4438 4.2075 15.195 6.34125 16.005L9.08625 11.25H1.845ZM10.2975 11.25L7.3725 16.3162C7.8975 16.4325 8.44125 16.5 9 16.5C10.8 16.5 12.4462 15.8663 13.74 14.8088L10.9913 10.05L10.2975 11.25Z" fill="#79818F"/>
</svg>
