<svg width="16" height="16" viewBox="0 0 16 16" fill="none" xmlns="http://www.w3.org/2000/svg">
<path d="M5.99998 14.0002C5.99998 14.3668 6.29998 14.6668 6.66665 14.6668H9.33331C9.69998 14.6668 9.99998 14.3668 9.99998 14.0002V13.3335H5.99998V14.0002ZM7.99998 1.3335C5.42331 1.3335 3.33331 3.4235 3.33331 6.00016C3.33331 7.58683 4.12665 8.9835 5.33331 9.82683V11.3335C5.33331 11.7002 5.63331 12.0002 5.99998 12.0002H9.99998C10.3666 12.0002 10.6666 11.7002 10.6666 11.3335V9.82683C11.8733 8.9835 12.6666 7.58683 12.6666 6.00016C12.6666 3.4235 10.5766 1.3335 7.99998 1.3335ZM9.90331 8.7335L9.33331 9.13016V10.6668H6.66665V9.1335L6.09665 8.73683C5.19998 8.11016 4.66665 7.09016 4.66665 6.0035C4.66665 4.16683 6.16331 2.67016 7.99998 2.67016C9.83665 2.67016 11.3333 4.16683 11.3333 6.0035C11.3333 7.08683 10.8 8.10683 9.90331 8.7335Z" fill="#79818F"/>
</svg>
