<svg width="16" height="16" viewBox="0 0 16 16" fill="none" xmlns="http://www.w3.org/2000/svg">
<path fill-rule="evenodd" clip-rule="evenodd" d="M1.95343 4.97786C2.62645 3.92027 3.67218 3.15406 4.88343 2.83106L5.49996 2.66666C5.49996 2.66666 6.74996 4.59999 7.99996 4.59999C9.24996 4.59999 10.5 2.66666 10.5 2.66666L11.1165 2.83106C12.3277 3.15406 13.3735 3.92027 14.0465 4.97786L15.3333 6.99999L13.1666 8.83332L12.3333 7.99999V14.6667H3.66663V7.99999L2.83329 8.83332L0.666626 6.99999L1.95343 4.97786Z" fill="#79818F"/>
<path fill-rule="evenodd" clip-rule="evenodd" d="M10.7333 2.33332V0.666656H12.0666V2.73332H14.1333L14.5333 4.06666H12.4666V6.13332H10.7333V4.06666H8.66663V2.33332H10.7333Z" fill="white"/>
<path fill-rule="evenodd" clip-rule="evenodd" d="M11.1333 2.73332V0.666656H12.0667V2.73332H14.1333V3.66666H12.0667V5.73332H11.1333V3.66666H9.06665V2.73332H11.1333Z" fill="#79818F"/>
</svg>
